<svg width="31" height="39" viewBox="0 0 31 39"  xmlns="http://www.w3.org/2000/svg">
<path id="svg-security" d="M27.125 13H25.1875V9.28571C25.1875 4.16 20.8475 0 15.5 0C10.1525 0 5.8125 4.16 5.8125 9.28571V13H3.875C1.74375 13 0 14.6714 0 16.7143V35.2857C0 37.3286 1.74375 39 3.875 39H27.125C29.2563 39 31 37.3286 31 35.2857V16.7143C31 14.6714 29.2563 13 27.125 13ZM15.5 29.7143C13.3687 29.7143 11.625 28.0429 11.625 26C11.625 23.9571 13.3687 22.2857 15.5 22.2857C17.6313 22.2857 19.375 23.9571 19.375 26C19.375 28.0429 17.6313 29.7143 15.5 29.7143ZM9.6875 13V9.28571C9.6875 6.20286 12.2838 3.71429 15.5 3.71429C18.7162 3.71429 21.3125 6.20286 21.3125 9.28571V13H9.6875Z" fill="#3FA9F5"/>
</svg>
