<svg width="41" height="41" viewBox="0 0 41 41" fill="none" xmlns="http://www.w3.org/2000/svg">
<path d="M20.5 0.916626C9.69002 0.916626 0.916687 9.68996 0.916687 20.5C0.916687 31.31 9.69002 40.0833 20.5 40.0833C31.31 40.0833 40.0834 31.31 40.0834 20.5C40.0834 9.68996 31.31 0.916626 20.5 0.916626ZM20.5 6.79163C23.7509 6.79163 26.375 9.41579 26.375 12.6666C26.375 15.9175 23.7509 18.5416 20.5 18.5416C17.2492 18.5416 14.625 15.9175 14.625 12.6666C14.625 9.41579 17.2492 6.79163 20.5 6.79163ZM20.5 34.6C15.6042 34.6 11.2763 32.0933 8.75002 28.2941C8.80877 24.397 16.5834 22.2625 20.5 22.2625C24.3971 22.2625 32.1913 24.397 32.25 28.2941C29.7238 32.0933 25.3959 34.6 20.5 34.6Z" fill="#C4C4C4"/>
</svg>
